<?xml version="1.0" encoding="utf-8"?>
<!DOCTYPE svg PUBLIC "-//W3C//DTD SVG 1.1//EN" "http://www.w3.org/Graphics/SVG/1.1/DTD/svg11.dtd">
<svg version="1.1" id="Layer_1" xmlns="http://www.w3.org/2000/svg" xmlns:xlink="http://www.w3.org/1999/xlink" x="0px" y="0px"
width="2277px" height="2277px" viewBox="0 0 2277 2277" enable-background="new 0 0 2277 2277" xml:space="preserve">
<rect x="0" y="0" width="2277" height="2277" fill="rgb(255,255,255)" /><g transform="translate(138,138)"><g transform="translate(552,0) scale(0.69,0.69)"><g transform="" style="fill: rgb(17, 226, 41);">
<polygon points="0,50 50,100 100,50 50,0"/>
</g></g><g transform="translate(690,0) scale(0.69,0.69)"><g transform="" style="fill: rgb(17, 226, 41);">
<polygon points="0,50 50,100 100,50 50,0"/>
</g></g><g transform="translate(897,0) scale(0.69,0.69)"><g transform="" style="fill: rgb(17, 226, 41);">
<polygon points="0,50 50,100 100,50 50,0"/>
</g></g><g transform="translate(966,0) scale(0.69,0.69)"><g transform="" style="fill: rgb(17, 226, 41);">
<polygon points="0,50 50,100 100,50 50,0"/>
</g></g><g transform="translate(1173,0) scale(0.69,0.69)"><g transform="" style="fill: rgb(17, 226, 41);">
<polygon points="0,50 50,100 100,50 50,0"/>
</g></g><g transform="translate(1242,0) scale(0.69,0.69)"><g transform="" style="fill: rgb(17, 226, 41);">
<polygon points="0,50 50,100 100,50 50,0"/>
</g></g><g transform="translate(1311,0) scale(0.69,0.69)"><g transform="" style="fill: rgb(17, 226, 41);">
<polygon points="0,50 50,100 100,50 50,0"/>
</g></g><g transform="translate(621,69) scale(0.69,0.69)"><g transform="" style="fill: rgb(17, 226, 41);">
<polygon points="0,50 50,100 100,50 50,0"/>
</g></g><g transform="translate(690,69) scale(0.69,0.69)"><g transform="" style="fill: rgb(17, 226, 41);">
<polygon points="0,50 50,100 100,50 50,0"/>
</g></g><g transform="translate(759,69) scale(0.69,0.69)"><g transform="" style="fill: rgb(17, 226, 41);">
<polygon points="0,50 50,100 100,50 50,0"/>
</g></g><g transform="translate(828,69) scale(0.69,0.69)"><g transform="" style="fill: rgb(17, 226, 41);">
<polygon points="0,50 50,100 100,50 50,0"/>
</g></g><g transform="translate(897,69) scale(0.69,0.69)"><g transform="" style="fill: rgb(17, 226, 41);">
<polygon points="0,50 50,100 100,50 50,0"/>
</g></g><g transform="translate(1035,69) scale(0.69,0.69)"><g transform="" style="fill: rgb(17, 226, 41);">
<polygon points="0,50 50,100 100,50 50,0"/>
</g></g><g transform="translate(1173,69) scale(0.69,0.69)"><g transform="" style="fill: rgb(17, 226, 41);">
<polygon points="0,50 50,100 100,50 50,0"/>
</g></g><g transform="translate(1242,69) scale(0.69,0.69)"><g transform="" style="fill: rgb(17, 226, 41);">
<polygon points="0,50 50,100 100,50 50,0"/>
</g></g><g transform="translate(1311,69) scale(0.69,0.69)"><g transform="" style="fill: rgb(17, 226, 41);">
<polygon points="0,50 50,100 100,50 50,0"/>
</g></g><g transform="translate(552,138) scale(0.69,0.69)"><g transform="" style="fill: rgb(17, 226, 41);">
<polygon points="0,50 50,100 100,50 50,0"/>
</g></g><g transform="translate(759,138) scale(0.69,0.69)"><g transform="" style="fill: rgb(17, 226, 41);">
<polygon points="0,50 50,100 100,50 50,0"/>
</g></g><g transform="translate(828,138) scale(0.69,0.69)"><g transform="" style="fill: rgb(17, 226, 41);">
<polygon points="0,50 50,100 100,50 50,0"/>
</g></g><g transform="translate(966,138) scale(0.69,0.69)"><g transform="" style="fill: rgb(17, 226, 41);">
<polygon points="0,50 50,100 100,50 50,0"/>
</g></g><g transform="translate(1035,138) scale(0.69,0.69)"><g transform="" style="fill: rgb(17, 226, 41);">
<polygon points="0,50 50,100 100,50 50,0"/>
</g></g><g transform="translate(1104,138) scale(0.69,0.69)"><g transform="" style="fill: rgb(17, 226, 41);">
<polygon points="0,50 50,100 100,50 50,0"/>
</g></g><g transform="translate(1242,138) scale(0.69,0.69)"><g transform="" style="fill: rgb(17, 226, 41);">
<polygon points="0,50 50,100 100,50 50,0"/>
</g></g><g transform="translate(1311,138) scale(0.69,0.69)"><g transform="" style="fill: rgb(17, 226, 41);">
<polygon points="0,50 50,100 100,50 50,0"/>
</g></g><g transform="translate(1380,138) scale(0.69,0.69)"><g transform="" style="fill: rgb(17, 226, 41);">
<polygon points="0,50 50,100 100,50 50,0"/>
</g></g><g transform="translate(621,207) scale(0.69,0.69)"><g transform="" style="fill: rgb(17, 226, 41);">
<polygon points="0,50 50,100 100,50 50,0"/>
</g></g><g transform="translate(1035,207) scale(0.69,0.69)"><g transform="" style="fill: rgb(17, 226, 41);">
<polygon points="0,50 50,100 100,50 50,0"/>
</g></g><g transform="translate(1104,207) scale(0.69,0.69)"><g transform="" style="fill: rgb(17, 226, 41);">
<polygon points="0,50 50,100 100,50 50,0"/>
</g></g><g transform="translate(1173,207) scale(0.69,0.69)"><g transform="" style="fill: rgb(17, 226, 41);">
<polygon points="0,50 50,100 100,50 50,0"/>
</g></g><g transform="translate(1242,207) scale(0.69,0.69)"><g transform="" style="fill: rgb(17, 226, 41);">
<polygon points="0,50 50,100 100,50 50,0"/>
</g></g><g transform="translate(1311,207) scale(0.69,0.69)"><g transform="" style="fill: rgb(17, 226, 41);">
<polygon points="0,50 50,100 100,50 50,0"/>
</g></g><g transform="translate(552,276) scale(0.69,0.69)"><g transform="" style="fill: rgb(17, 226, 41);">
<polygon points="0,50 50,100 100,50 50,0"/>
</g></g><g transform="translate(621,276) scale(0.69,0.69)"><g transform="" style="fill: rgb(17, 226, 41);">
<polygon points="0,50 50,100 100,50 50,0"/>
</g></g><g transform="translate(690,276) scale(0.69,0.69)"><g transform="" style="fill: rgb(17, 226, 41);">
<polygon points="0,50 50,100 100,50 50,0"/>
</g></g><g transform="translate(897,276) scale(0.69,0.69)"><g transform="" style="fill: rgb(17, 226, 41);">
<polygon points="0,50 50,100 100,50 50,0"/>
</g></g><g transform="translate(1104,276) scale(0.69,0.69)"><g transform="" style="fill: rgb(17, 226, 41);">
<polygon points="0,50 50,100 100,50 50,0"/>
</g></g><g transform="translate(1311,276) scale(0.69,0.69)"><g transform="" style="fill: rgb(17, 226, 41);">
<polygon points="0,50 50,100 100,50 50,0"/>
</g></g><g transform="translate(621,345) scale(0.69,0.69)"><g transform="" style="fill: rgb(17, 226, 41);">
<polygon points="0,50 50,100 100,50 50,0"/>
</g></g><g transform="translate(759,345) scale(0.69,0.69)"><g transform="" style="fill: rgb(17, 226, 41);">
<polygon points="0,50 50,100 100,50 50,0"/>
</g></g><g transform="translate(897,345) scale(0.69,0.69)"><g transform="" style="fill: rgb(17, 226, 41);">
<polygon points="0,50 50,100 100,50 50,0"/>
</g></g><g transform="translate(966,345) scale(0.69,0.69)"><g transform="" style="fill: rgb(17, 226, 41);">
<polygon points="0,50 50,100 100,50 50,0"/>
</g></g><g transform="translate(1035,345) scale(0.69,0.69)"><g transform="" style="fill: rgb(17, 226, 41);">
<polygon points="0,50 50,100 100,50 50,0"/>
</g></g><g transform="translate(1242,345) scale(0.69,0.69)"><g transform="" style="fill: rgb(17, 226, 41);">
<polygon points="0,50 50,100 100,50 50,0"/>
</g></g><g transform="translate(552,414) scale(0.69,0.69)"><g transform="" style="fill: rgb(17, 226, 41);">
<polygon points="0,50 50,100 100,50 50,0"/>
</g></g><g transform="translate(690,414) scale(0.69,0.69)"><g transform="" style="fill: rgb(17, 226, 41);">
<polygon points="0,50 50,100 100,50 50,0"/>
</g></g><g transform="translate(828,414) scale(0.69,0.69)"><g transform="" style="fill: rgb(17, 226, 41);">
<polygon points="0,50 50,100 100,50 50,0"/>
</g></g><g transform="translate(966,414) scale(0.69,0.69)"><g transform="" style="fill: rgb(17, 226, 41);">
<polygon points="0,50 50,100 100,50 50,0"/>
</g></g><g transform="translate(1104,414) scale(0.69,0.69)"><g transform="" style="fill: rgb(17, 226, 41);">
<polygon points="0,50 50,100 100,50 50,0"/>
</g></g><g transform="translate(1242,414) scale(0.69,0.69)"><g transform="" style="fill: rgb(17, 226, 41);">
<polygon points="0,50 50,100 100,50 50,0"/>
</g></g><g transform="translate(1380,414) scale(0.69,0.69)"><g transform="" style="fill: rgb(17, 226, 41);">
<polygon points="0,50 50,100 100,50 50,0"/>
</g></g><g transform="translate(552,483) scale(0.69,0.69)"><g transform="" style="fill: rgb(17, 226, 41);">
<polygon points="0,50 50,100 100,50 50,0"/>
</g></g><g transform="translate(621,483) scale(0.69,0.69)"><g transform="" style="fill: rgb(17, 226, 41);">
<polygon points="0,50 50,100 100,50 50,0"/>
</g></g><g transform="translate(690,483) scale(0.69,0.69)"><g transform="" style="fill: rgb(17, 226, 41);">
<polygon points="0,50 50,100 100,50 50,0"/>
</g></g><g transform="translate(828,483) scale(0.69,0.69)"><g transform="" style="fill: rgb(17, 226, 41);">
<polygon points="0,50 50,100 100,50 50,0"/>
</g></g><g transform="translate(897,483) scale(0.69,0.69)"><g transform="" style="fill: rgb(17, 226, 41);">
<polygon points="0,50 50,100 100,50 50,0"/>
</g></g><g transform="translate(966,483) scale(0.69,0.69)"><g transform="" style="fill: rgb(17, 226, 41);">
<polygon points="0,50 50,100 100,50 50,0"/>
</g></g><g transform="translate(1035,483) scale(0.69,0.69)"><g transform="" style="fill: rgb(17, 226, 41);">
<polygon points="0,50 50,100 100,50 50,0"/>
</g></g><g transform="translate(1104,483) scale(0.69,0.69)"><g transform="" style="fill: rgb(17, 226, 41);">
<polygon points="0,50 50,100 100,50 50,0"/>
</g></g><g transform="translate(345,552) scale(0.69,0.69)"><g transform="" style="fill: rgb(17, 226, 41);">
<polygon points="0,50 50,100 100,50 50,0"/>
</g></g><g transform="translate(414,552) scale(0.69,0.69)"><g transform="" style="fill: rgb(17, 226, 41);">
<polygon points="0,50 50,100 100,50 50,0"/>
</g></g><g transform="translate(759,552) scale(0.69,0.69)"><g transform="" style="fill: rgb(17, 226, 41);">
<polygon points="0,50 50,100 100,50 50,0"/>
</g></g><g transform="translate(828,552) scale(0.69,0.69)"><g transform="" style="fill: rgb(17, 226, 41);">
<polygon points="0,50 50,100 100,50 50,0"/>
</g></g><g transform="translate(897,552) scale(0.69,0.69)"><g transform="" style="fill: rgb(17, 226, 41);">
<polygon points="0,50 50,100 100,50 50,0"/>
</g></g><g transform="translate(1035,552) scale(0.69,0.69)"><g transform="" style="fill: rgb(17, 226, 41);">
<polygon points="0,50 50,100 100,50 50,0"/>
</g></g><g transform="translate(1242,552) scale(0.69,0.69)"><g transform="" style="fill: rgb(17, 226, 41);">
<polygon points="0,50 50,100 100,50 50,0"/>
</g></g><g transform="translate(1311,552) scale(0.69,0.69)"><g transform="" style="fill: rgb(17, 226, 41);">
<polygon points="0,50 50,100 100,50 50,0"/>
</g></g><g transform="translate(1380,552) scale(0.69,0.69)"><g transform="" style="fill: rgb(17, 226, 41);">
<polygon points="0,50 50,100 100,50 50,0"/>
</g></g><g transform="translate(1518,552) scale(0.69,0.69)"><g transform="" style="fill: rgb(17, 226, 41);">
<polygon points="0,50 50,100 100,50 50,0"/>
</g></g><g transform="translate(1656,552) scale(0.69,0.69)"><g transform="" style="fill: rgb(17, 226, 41);">
<polygon points="0,50 50,100 100,50 50,0"/>
</g></g><g transform="translate(1794,552) scale(0.69,0.69)"><g transform="" style="fill: rgb(17, 226, 41);">
<polygon points="0,50 50,100 100,50 50,0"/>
</g></g><g transform="translate(1932,552) scale(0.69,0.69)"><g transform="" style="fill: rgb(17, 226, 41);">
<polygon points="0,50 50,100 100,50 50,0"/>
</g></g><g transform="translate(0,621) scale(0.69,0.69)"><g transform="" style="fill: rgb(17, 226, 41);">
<polygon points="0,50 50,100 100,50 50,0"/>
</g></g><g transform="translate(276,621) scale(0.69,0.69)"><g transform="" style="fill: rgb(17, 226, 41);">
<polygon points="0,50 50,100 100,50 50,0"/>
</g></g><g transform="translate(345,621) scale(0.69,0.69)"><g transform="" style="fill: rgb(17, 226, 41);">
<polygon points="0,50 50,100 100,50 50,0"/>
</g></g><g transform="translate(483,621) scale(0.69,0.69)"><g transform="" style="fill: rgb(17, 226, 41);">
<polygon points="0,50 50,100 100,50 50,0"/>
</g></g><g transform="translate(621,621) scale(0.69,0.69)"><g transform="" style="fill: rgb(17, 226, 41);">
<polygon points="0,50 50,100 100,50 50,0"/>
</g></g><g transform="translate(828,621) scale(0.69,0.69)"><g transform="" style="fill: rgb(17, 226, 41);">
<polygon points="0,50 50,100 100,50 50,0"/>
</g></g><g transform="translate(897,621) scale(0.69,0.69)"><g transform="" style="fill: rgb(17, 226, 41);">
<polygon points="0,50 50,100 100,50 50,0"/>
</g></g><g transform="translate(1104,621) scale(0.69,0.69)"><g transform="" style="fill: rgb(17, 226, 41);">
<polygon points="0,50 50,100 100,50 50,0"/>
</g></g><g transform="translate(1173,621) scale(0.69,0.69)"><g transform="" style="fill: rgb(17, 226, 41);">
<polygon points="0,50 50,100 100,50 50,0"/>
</g></g><g transform="translate(1380,621) scale(0.69,0.69)"><g transform="" style="fill: rgb(17, 226, 41);">
<polygon points="0,50 50,100 100,50 50,0"/>
</g></g><g transform="translate(1449,621) scale(0.69,0.69)"><g transform="" style="fill: rgb(17, 226, 41);">
<polygon points="0,50 50,100 100,50 50,0"/>
</g></g><g transform="translate(1518,621) scale(0.69,0.69)"><g transform="" style="fill: rgb(17, 226, 41);">
<polygon points="0,50 50,100 100,50 50,0"/>
</g></g><g transform="translate(1656,621) scale(0.69,0.69)"><g transform="" style="fill: rgb(17, 226, 41);">
<polygon points="0,50 50,100 100,50 50,0"/>
</g></g><g transform="translate(1794,621) scale(0.69,0.69)"><g transform="" style="fill: rgb(17, 226, 41);">
<polygon points="0,50 50,100 100,50 50,0"/>
</g></g><g transform="translate(69,690) scale(0.69,0.69)"><g transform="" style="fill: rgb(17, 226, 41);">
<polygon points="0,50 50,100 100,50 50,0"/>
</g></g><g transform="translate(276,690) scale(0.69,0.69)"><g transform="" style="fill: rgb(17, 226, 41);">
<polygon points="0,50 50,100 100,50 50,0"/>
</g></g><g transform="translate(345,690) scale(0.69,0.69)"><g transform="" style="fill: rgb(17, 226, 41);">
<polygon points="0,50 50,100 100,50 50,0"/>
</g></g><g transform="translate(414,690) scale(0.69,0.69)"><g transform="" style="fill: rgb(17, 226, 41);">
<polygon points="0,50 50,100 100,50 50,0"/>
</g></g><g transform="translate(483,690) scale(0.69,0.69)"><g transform="" style="fill: rgb(17, 226, 41);">
<polygon points="0,50 50,100 100,50 50,0"/>
</g></g><g transform="translate(621,690) scale(0.69,0.69)"><g transform="" style="fill: rgb(17, 226, 41);">
<polygon points="0,50 50,100 100,50 50,0"/>
</g></g><g transform="translate(759,690) scale(0.69,0.69)"><g transform="" style="fill: rgb(17, 226, 41);">
<polygon points="0,50 50,100 100,50 50,0"/>
</g></g><g transform="translate(897,690) scale(0.69,0.69)"><g transform="" style="fill: rgb(17, 226, 41);">
<polygon points="0,50 50,100 100,50 50,0"/>
</g></g><g transform="translate(966,690) scale(0.69,0.69)"><g transform="" style="fill: rgb(17, 226, 41);">
<polygon points="0,50 50,100 100,50 50,0"/>
</g></g><g transform="translate(1104,690) scale(0.69,0.69)"><g transform="" style="fill: rgb(17, 226, 41);">
<polygon points="0,50 50,100 100,50 50,0"/>
</g></g><g transform="translate(1380,690) scale(0.69,0.69)"><g transform="" style="fill: rgb(17, 226, 41);">
<polygon points="0,50 50,100 100,50 50,0"/>
</g></g><g transform="translate(1449,690) scale(0.69,0.69)"><g transform="" style="fill: rgb(17, 226, 41);">
<polygon points="0,50 50,100 100,50 50,0"/>
</g></g><g transform="translate(1587,690) scale(0.69,0.69)"><g transform="" style="fill: rgb(17, 226, 41);">
<polygon points="0,50 50,100 100,50 50,0"/>
</g></g><g transform="translate(1656,690) scale(0.69,0.69)"><g transform="" style="fill: rgb(17, 226, 41);">
<polygon points="0,50 50,100 100,50 50,0"/>
</g></g><g transform="translate(1725,690) scale(0.69,0.69)"><g transform="" style="fill: rgb(17, 226, 41);">
<polygon points="0,50 50,100 100,50 50,0"/>
</g></g><g transform="translate(1794,690) scale(0.69,0.69)"><g transform="" style="fill: rgb(17, 226, 41);">
<polygon points="0,50 50,100 100,50 50,0"/>
</g></g><g transform="translate(0,759) scale(0.69,0.69)"><g transform="" style="fill: rgb(17, 226, 41);">
<polygon points="0,50 50,100 100,50 50,0"/>
</g></g><g transform="translate(69,759) scale(0.69,0.69)"><g transform="" style="fill: rgb(17, 226, 41);">
<polygon points="0,50 50,100 100,50 50,0"/>
</g></g><g transform="translate(138,759) scale(0.69,0.69)"><g transform="" style="fill: rgb(17, 226, 41);">
<polygon points="0,50 50,100 100,50 50,0"/>
</g></g><g transform="translate(207,759) scale(0.69,0.69)"><g transform="" style="fill: rgb(17, 226, 41);">
<polygon points="0,50 50,100 100,50 50,0"/>
</g></g><g transform="translate(483,759) scale(0.69,0.69)"><g transform="" style="fill: rgb(17, 226, 41);">
<polygon points="0,50 50,100 100,50 50,0"/>
</g></g><g transform="translate(690,759) scale(0.69,0.69)"><g transform="" style="fill: rgb(17, 226, 41);">
<polygon points="0,50 50,100 100,50 50,0"/>
</g></g><g transform="translate(759,759) scale(0.69,0.69)"><g transform="" style="fill: rgb(17, 226, 41);">
<polygon points="0,50 50,100 100,50 50,0"/>
</g></g><g transform="translate(828,759) scale(0.69,0.69)"><g transform="" style="fill: rgb(17, 226, 41);">
<polygon points="0,50 50,100 100,50 50,0"/>
</g></g><g transform="translate(1104,759) scale(0.69,0.69)"><g transform="" style="fill: rgb(17, 226, 41);">
<polygon points="0,50 50,100 100,50 50,0"/>
</g></g><g transform="translate(1242,759) scale(0.69,0.69)"><g transform="" style="fill: rgb(17, 226, 41);">
<polygon points="0,50 50,100 100,50 50,0"/>
</g></g><g transform="translate(1449,759) scale(0.69,0.69)"><g transform="" style="fill: rgb(17, 226, 41);">
<polygon points="0,50 50,100 100,50 50,0"/>
</g></g><g transform="translate(1518,759) scale(0.69,0.69)"><g transform="" style="fill: rgb(17, 226, 41);">
<polygon points="0,50 50,100 100,50 50,0"/>
</g></g><g transform="translate(1656,759) scale(0.69,0.69)"><g transform="" style="fill: rgb(17, 226, 41);">
<polygon points="0,50 50,100 100,50 50,0"/>
</g></g><g transform="translate(207,828) scale(0.69,0.69)"><g transform="" style="fill: rgb(17, 226, 41);">
<polygon points="0,50 50,100 100,50 50,0"/>
</g></g><g transform="translate(276,828) scale(0.69,0.69)"><g transform="" style="fill: rgb(17, 226, 41);">
<polygon points="0,50 50,100 100,50 50,0"/>
</g></g><g transform="translate(345,828) scale(0.69,0.69)"><g transform="" style="fill: rgb(17, 226, 41);">
<polygon points="0,50 50,100 100,50 50,0"/>
</g></g><g transform="translate(414,828) scale(0.69,0.69)"><g transform="" style="fill: rgb(17, 226, 41);">
<polygon points="0,50 50,100 100,50 50,0"/>
</g></g><g transform="translate(483,828) scale(0.69,0.69)"><g transform="" style="fill: rgb(17, 226, 41);">
<polygon points="0,50 50,100 100,50 50,0"/>
</g></g><g transform="translate(552,828) scale(0.69,0.69)"><g transform="" style="fill: rgb(17, 226, 41);">
<polygon points="0,50 50,100 100,50 50,0"/>
</g></g><g transform="translate(621,828) scale(0.69,0.69)"><g transform="" style="fill: rgb(17, 226, 41);">
<polygon points="0,50 50,100 100,50 50,0"/>
</g></g><g transform="translate(759,828) scale(0.69,0.69)"><g transform="" style="fill: rgb(17, 226, 41);">
<polygon points="0,50 50,100 100,50 50,0"/>
</g></g><g transform="translate(897,828) scale(0.69,0.69)"><g transform="" style="fill: rgb(17, 226, 41);">
<polygon points="0,50 50,100 100,50 50,0"/>
</g></g><g transform="translate(966,828) scale(0.69,0.69)"><g transform="" style="fill: rgb(17, 226, 41);">
<polygon points="0,50 50,100 100,50 50,0"/>
</g></g><g transform="translate(1311,828) scale(0.69,0.69)"><g transform="" style="fill: rgb(17, 226, 41);">
<polygon points="0,50 50,100 100,50 50,0"/>
</g></g><g transform="translate(1449,828) scale(0.69,0.69)"><g transform="" style="fill: rgb(17, 226, 41);">
<polygon points="0,50 50,100 100,50 50,0"/>
</g></g><g transform="translate(1518,828) scale(0.69,0.69)"><g transform="" style="fill: rgb(17, 226, 41);">
<polygon points="0,50 50,100 100,50 50,0"/>
</g></g><g transform="translate(1932,828) scale(0.69,0.69)"><g transform="" style="fill: rgb(17, 226, 41);">
<polygon points="0,50 50,100 100,50 50,0"/>
</g></g><g transform="translate(0,897) scale(0.69,0.69)"><g transform="" style="fill: rgb(17, 226, 41);">
<polygon points="0,50 50,100 100,50 50,0"/>
</g></g><g transform="translate(69,897) scale(0.69,0.69)"><g transform="" style="fill: rgb(17, 226, 41);">
<polygon points="0,50 50,100 100,50 50,0"/>
</g></g><g transform="translate(483,897) scale(0.69,0.69)"><g transform="" style="fill: rgb(17, 226, 41);">
<polygon points="0,50 50,100 100,50 50,0"/>
</g></g><g transform="translate(552,897) scale(0.69,0.69)"><g transform="" style="fill: rgb(17, 226, 41);">
<polygon points="0,50 50,100 100,50 50,0"/>
</g></g><g transform="translate(690,897) scale(0.69,0.69)"><g transform="" style="fill: rgb(17, 226, 41);">
<polygon points="0,50 50,100 100,50 50,0"/>
</g></g><g transform="translate(759,897) scale(0.69,0.69)"><g transform="" style="fill: rgb(17, 226, 41);">
<polygon points="0,50 50,100 100,50 50,0"/>
</g></g><g transform="translate(897,897) scale(0.69,0.69)"><g transform="" style="fill: rgb(17, 226, 41);">
<polygon points="0,50 50,100 100,50 50,0"/>
</g></g><g transform="translate(1242,897) scale(0.69,0.69)"><g transform="" style="fill: rgb(17, 226, 41);">
<polygon points="0,50 50,100 100,50 50,0"/>
</g></g><g transform="translate(1311,897) scale(0.69,0.69)"><g transform="" style="fill: rgb(17, 226, 41);">
<polygon points="0,50 50,100 100,50 50,0"/>
</g></g><g transform="translate(1449,897) scale(0.69,0.69)"><g transform="" style="fill: rgb(17, 226, 41);">
<polygon points="0,50 50,100 100,50 50,0"/>
</g></g><g transform="translate(1518,897) scale(0.69,0.69)"><g transform="" style="fill: rgb(17, 226, 41);">
<polygon points="0,50 50,100 100,50 50,0"/>
</g></g><g transform="translate(1656,897) scale(0.69,0.69)"><g transform="" style="fill: rgb(17, 226, 41);">
<polygon points="0,50 50,100 100,50 50,0"/>
</g></g><g transform="translate(1725,897) scale(0.69,0.69)"><g transform="" style="fill: rgb(17, 226, 41);">
<polygon points="0,50 50,100 100,50 50,0"/>
</g></g><g transform="translate(1863,897) scale(0.69,0.69)"><g transform="" style="fill: rgb(17, 226, 41);">
<polygon points="0,50 50,100 100,50 50,0"/>
</g></g><g transform="translate(1932,897) scale(0.69,0.69)"><g transform="" style="fill: rgb(17, 226, 41);">
<polygon points="0,50 50,100 100,50 50,0"/>
</g></g><g transform="translate(69,966) scale(0.69,0.69)"><g transform="" style="fill: rgb(17, 226, 41);">
<polygon points="0,50 50,100 100,50 50,0"/>
</g></g><g transform="translate(138,966) scale(0.69,0.69)"><g transform="" style="fill: rgb(17, 226, 41);">
<polygon points="0,50 50,100 100,50 50,0"/>
</g></g><g transform="translate(276,966) scale(0.69,0.69)"><g transform="" style="fill: rgb(17, 226, 41);">
<polygon points="0,50 50,100 100,50 50,0"/>
</g></g><g transform="translate(414,966) scale(0.69,0.69)"><g transform="" style="fill: rgb(17, 226, 41);">
<polygon points="0,50 50,100 100,50 50,0"/>
</g></g><g transform="translate(483,966) scale(0.69,0.69)"><g transform="" style="fill: rgb(17, 226, 41);">
<polygon points="0,50 50,100 100,50 50,0"/>
</g></g><g transform="translate(621,966) scale(0.69,0.69)"><g transform="" style="fill: rgb(17, 226, 41);">
<polygon points="0,50 50,100 100,50 50,0"/>
</g></g><g transform="translate(690,966) scale(0.69,0.69)"><g transform="" style="fill: rgb(17, 226, 41);">
<polygon points="0,50 50,100 100,50 50,0"/>
</g></g><g transform="translate(897,966) scale(0.69,0.69)"><g transform="" style="fill: rgb(17, 226, 41);">
<polygon points="0,50 50,100 100,50 50,0"/>
</g></g><g transform="translate(1380,966) scale(0.69,0.69)"><g transform="" style="fill: rgb(17, 226, 41);">
<polygon points="0,50 50,100 100,50 50,0"/>
</g></g><g transform="translate(1518,966) scale(0.69,0.69)"><g transform="" style="fill: rgb(17, 226, 41);">
<polygon points="0,50 50,100 100,50 50,0"/>
</g></g><g transform="translate(1587,966) scale(0.69,0.69)"><g transform="" style="fill: rgb(17, 226, 41);">
<polygon points="0,50 50,100 100,50 50,0"/>
</g></g><g transform="translate(1725,966) scale(0.69,0.69)"><g transform="" style="fill: rgb(17, 226, 41);">
<polygon points="0,50 50,100 100,50 50,0"/>
</g></g><g transform="translate(1863,966) scale(0.69,0.69)"><g transform="" style="fill: rgb(17, 226, 41);">
<polygon points="0,50 50,100 100,50 50,0"/>
</g></g><g transform="translate(0,1035) scale(0.69,0.69)"><g transform="" style="fill: rgb(17, 226, 41);">
<polygon points="0,50 50,100 100,50 50,0"/>
</g></g><g transform="translate(207,1035) scale(0.69,0.69)"><g transform="" style="fill: rgb(17, 226, 41);">
<polygon points="0,50 50,100 100,50 50,0"/>
</g></g><g transform="translate(276,1035) scale(0.69,0.69)"><g transform="" style="fill: rgb(17, 226, 41);">
<polygon points="0,50 50,100 100,50 50,0"/>
</g></g><g transform="translate(345,1035) scale(0.69,0.69)"><g transform="" style="fill: rgb(17, 226, 41);">
<polygon points="0,50 50,100 100,50 50,0"/>
</g></g><g transform="translate(483,1035) scale(0.69,0.69)"><g transform="" style="fill: rgb(17, 226, 41);">
<polygon points="0,50 50,100 100,50 50,0"/>
</g></g><g transform="translate(690,1035) scale(0.69,0.69)"><g transform="" style="fill: rgb(17, 226, 41);">
<polygon points="0,50 50,100 100,50 50,0"/>
</g></g><g transform="translate(966,1035) scale(0.69,0.69)"><g transform="" style="fill: rgb(17, 226, 41);">
<polygon points="0,50 50,100 100,50 50,0"/>
</g></g><g transform="translate(1311,1035) scale(0.69,0.69)"><g transform="" style="fill: rgb(17, 226, 41);">
<polygon points="0,50 50,100 100,50 50,0"/>
</g></g><g transform="translate(1380,1035) scale(0.69,0.69)"><g transform="" style="fill: rgb(17, 226, 41);">
<polygon points="0,50 50,100 100,50 50,0"/>
</g></g><g transform="translate(1725,1035) scale(0.69,0.69)"><g transform="" style="fill: rgb(17, 226, 41);">
<polygon points="0,50 50,100 100,50 50,0"/>
</g></g><g transform="translate(1794,1035) scale(0.69,0.69)"><g transform="" style="fill: rgb(17, 226, 41);">
<polygon points="0,50 50,100 100,50 50,0"/>
</g></g><g transform="translate(1932,1035) scale(0.69,0.69)"><g transform="" style="fill: rgb(17, 226, 41);">
<polygon points="0,50 50,100 100,50 50,0"/>
</g></g><g transform="translate(0,1104) scale(0.69,0.69)"><g transform="" style="fill: rgb(17, 226, 41);">
<polygon points="0,50 50,100 100,50 50,0"/>
</g></g><g transform="translate(276,1104) scale(0.69,0.69)"><g transform="" style="fill: rgb(17, 226, 41);">
<polygon points="0,50 50,100 100,50 50,0"/>
</g></g><g transform="translate(345,1104) scale(0.69,0.69)"><g transform="" style="fill: rgb(17, 226, 41);">
<polygon points="0,50 50,100 100,50 50,0"/>
</g></g><g transform="translate(414,1104) scale(0.69,0.69)"><g transform="" style="fill: rgb(17, 226, 41);">
<polygon points="0,50 50,100 100,50 50,0"/>
</g></g><g transform="translate(483,1104) scale(0.69,0.69)"><g transform="" style="fill: rgb(17, 226, 41);">
<polygon points="0,50 50,100 100,50 50,0"/>
</g></g><g transform="translate(552,1104) scale(0.69,0.69)"><g transform="" style="fill: rgb(17, 226, 41);">
<polygon points="0,50 50,100 100,50 50,0"/>
</g></g><g transform="translate(621,1104) scale(0.69,0.69)"><g transform="" style="fill: rgb(17, 226, 41);">
<polygon points="0,50 50,100 100,50 50,0"/>
</g></g><g transform="translate(690,1104) scale(0.69,0.69)"><g transform="" style="fill: rgb(17, 226, 41);">
<polygon points="0,50 50,100 100,50 50,0"/>
</g></g><g transform="translate(759,1104) scale(0.69,0.69)"><g transform="" style="fill: rgb(17, 226, 41);">
<polygon points="0,50 50,100 100,50 50,0"/>
</g></g><g transform="translate(1104,1104) scale(0.69,0.69)"><g transform="" style="fill: rgb(17, 226, 41);">
<polygon points="0,50 50,100 100,50 50,0"/>
</g></g><g transform="translate(1242,1104) scale(0.69,0.69)"><g transform="" style="fill: rgb(17, 226, 41);">
<polygon points="0,50 50,100 100,50 50,0"/>
</g></g><g transform="translate(1518,1104) scale(0.69,0.69)"><g transform="" style="fill: rgb(17, 226, 41);">
<polygon points="0,50 50,100 100,50 50,0"/>
</g></g><g transform="translate(1656,1104) scale(0.69,0.69)"><g transform="" style="fill: rgb(17, 226, 41);">
<polygon points="0,50 50,100 100,50 50,0"/>
</g></g><g transform="translate(1794,1104) scale(0.69,0.69)"><g transform="" style="fill: rgb(17, 226, 41);">
<polygon points="0,50 50,100 100,50 50,0"/>
</g></g><g transform="translate(1863,1104) scale(0.69,0.69)"><g transform="" style="fill: rgb(17, 226, 41);">
<polygon points="0,50 50,100 100,50 50,0"/>
</g></g><g transform="translate(0,1173) scale(0.69,0.69)"><g transform="" style="fill: rgb(17, 226, 41);">
<polygon points="0,50 50,100 100,50 50,0"/>
</g></g><g transform="translate(69,1173) scale(0.69,0.69)"><g transform="" style="fill: rgb(17, 226, 41);">
<polygon points="0,50 50,100 100,50 50,0"/>
</g></g><g transform="translate(138,1173) scale(0.69,0.69)"><g transform="" style="fill: rgb(17, 226, 41);">
<polygon points="0,50 50,100 100,50 50,0"/>
</g></g><g transform="translate(276,1173) scale(0.69,0.69)"><g transform="" style="fill: rgb(17, 226, 41);">
<polygon points="0,50 50,100 100,50 50,0"/>
</g></g><g transform="translate(345,1173) scale(0.69,0.69)"><g transform="" style="fill: rgb(17, 226, 41);">
<polygon points="0,50 50,100 100,50 50,0"/>
</g></g><g transform="translate(690,1173) scale(0.69,0.69)"><g transform="" style="fill: rgb(17, 226, 41);">
<polygon points="0,50 50,100 100,50 50,0"/>
</g></g><g transform="translate(828,1173) scale(0.69,0.69)"><g transform="" style="fill: rgb(17, 226, 41);">
<polygon points="0,50 50,100 100,50 50,0"/>
</g></g><g transform="translate(897,1173) scale(0.69,0.69)"><g transform="" style="fill: rgb(17, 226, 41);">
<polygon points="0,50 50,100 100,50 50,0"/>
</g></g><g transform="translate(966,1173) scale(0.69,0.69)"><g transform="" style="fill: rgb(17, 226, 41);">
<polygon points="0,50 50,100 100,50 50,0"/>
</g></g><g transform="translate(1104,1173) scale(0.69,0.69)"><g transform="" style="fill: rgb(17, 226, 41);">
<polygon points="0,50 50,100 100,50 50,0"/>
</g></g><g transform="translate(1173,1173) scale(0.69,0.69)"><g transform="" style="fill: rgb(17, 226, 41);">
<polygon points="0,50 50,100 100,50 50,0"/>
</g></g><g transform="translate(1242,1173) scale(0.69,0.69)"><g transform="" style="fill: rgb(17, 226, 41);">
<polygon points="0,50 50,100 100,50 50,0"/>
</g></g><g transform="translate(1380,1173) scale(0.69,0.69)"><g transform="" style="fill: rgb(17, 226, 41);">
<polygon points="0,50 50,100 100,50 50,0"/>
</g></g><g transform="translate(1587,1173) scale(0.69,0.69)"><g transform="" style="fill: rgb(17, 226, 41);">
<polygon points="0,50 50,100 100,50 50,0"/>
</g></g><g transform="translate(1725,1173) scale(0.69,0.69)"><g transform="" style="fill: rgb(17, 226, 41);">
<polygon points="0,50 50,100 100,50 50,0"/>
</g></g><g transform="translate(1863,1173) scale(0.69,0.69)"><g transform="" style="fill: rgb(17, 226, 41);">
<polygon points="0,50 50,100 100,50 50,0"/>
</g></g><g transform="translate(1932,1173) scale(0.69,0.69)"><g transform="" style="fill: rgb(17, 226, 41);">
<polygon points="0,50 50,100 100,50 50,0"/>
</g></g><g transform="translate(0,1242) scale(0.69,0.69)"><g transform="" style="fill: rgb(17, 226, 41);">
<polygon points="0,50 50,100 100,50 50,0"/>
</g></g><g transform="translate(69,1242) scale(0.69,0.69)"><g transform="" style="fill: rgb(17, 226, 41);">
<polygon points="0,50 50,100 100,50 50,0"/>
</g></g><g transform="translate(207,1242) scale(0.69,0.69)"><g transform="" style="fill: rgb(17, 226, 41);">
<polygon points="0,50 50,100 100,50 50,0"/>
</g></g><g transform="translate(276,1242) scale(0.69,0.69)"><g transform="" style="fill: rgb(17, 226, 41);">
<polygon points="0,50 50,100 100,50 50,0"/>
</g></g><g transform="translate(414,1242) scale(0.69,0.69)"><g transform="" style="fill: rgb(17, 226, 41);">
<polygon points="0,50 50,100 100,50 50,0"/>
</g></g><g transform="translate(483,1242) scale(0.69,0.69)"><g transform="" style="fill: rgb(17, 226, 41);">
<polygon points="0,50 50,100 100,50 50,0"/>
</g></g><g transform="translate(621,1242) scale(0.69,0.69)"><g transform="" style="fill: rgb(17, 226, 41);">
<polygon points="0,50 50,100 100,50 50,0"/>
</g></g><g transform="translate(690,1242) scale(0.69,0.69)"><g transform="" style="fill: rgb(17, 226, 41);">
<polygon points="0,50 50,100 100,50 50,0"/>
</g></g><g transform="translate(759,1242) scale(0.69,0.69)"><g transform="" style="fill: rgb(17, 226, 41);">
<polygon points="0,50 50,100 100,50 50,0"/>
</g></g><g transform="translate(828,1242) scale(0.69,0.69)"><g transform="" style="fill: rgb(17, 226, 41);">
<polygon points="0,50 50,100 100,50 50,0"/>
</g></g><g transform="translate(897,1242) scale(0.69,0.69)"><g transform="" style="fill: rgb(17, 226, 41);">
<polygon points="0,50 50,100 100,50 50,0"/>
</g></g><g transform="translate(1104,1242) scale(0.69,0.69)"><g transform="" style="fill: rgb(17, 226, 41);">
<polygon points="0,50 50,100 100,50 50,0"/>
</g></g><g transform="translate(1242,1242) scale(0.69,0.69)"><g transform="" style="fill: rgb(17, 226, 41);">
<polygon points="0,50 50,100 100,50 50,0"/>
</g></g><g transform="translate(1380,1242) scale(0.69,0.69)"><g transform="" style="fill: rgb(17, 226, 41);">
<polygon points="0,50 50,100 100,50 50,0"/>
</g></g><g transform="translate(1518,1242) scale(0.69,0.69)"><g transform="" style="fill: rgb(17, 226, 41);">
<polygon points="0,50 50,100 100,50 50,0"/>
</g></g><g transform="translate(1587,1242) scale(0.69,0.69)"><g transform="" style="fill: rgb(17, 226, 41);">
<polygon points="0,50 50,100 100,50 50,0"/>
</g></g><g transform="translate(1932,1242) scale(0.69,0.69)"><g transform="" style="fill: rgb(17, 226, 41);">
<polygon points="0,50 50,100 100,50 50,0"/>
</g></g><g transform="translate(0,1311) scale(0.69,0.69)"><g transform="" style="fill: rgb(17, 226, 41);">
<polygon points="0,50 50,100 100,50 50,0"/>
</g></g><g transform="translate(138,1311) scale(0.69,0.69)"><g transform="" style="fill: rgb(17, 226, 41);">
<polygon points="0,50 50,100 100,50 50,0"/>
</g></g><g transform="translate(207,1311) scale(0.69,0.69)"><g transform="" style="fill: rgb(17, 226, 41);">
<polygon points="0,50 50,100 100,50 50,0"/>
</g></g><g transform="translate(276,1311) scale(0.69,0.69)"><g transform="" style="fill: rgb(17, 226, 41);">
<polygon points="0,50 50,100 100,50 50,0"/>
</g></g><g transform="translate(345,1311) scale(0.69,0.69)"><g transform="" style="fill: rgb(17, 226, 41);">
<polygon points="0,50 50,100 100,50 50,0"/>
</g></g><g transform="translate(483,1311) scale(0.69,0.69)"><g transform="" style="fill: rgb(17, 226, 41);">
<polygon points="0,50 50,100 100,50 50,0"/>
</g></g><g transform="translate(759,1311) scale(0.69,0.69)"><g transform="" style="fill: rgb(17, 226, 41);">
<polygon points="0,50 50,100 100,50 50,0"/>
</g></g><g transform="translate(828,1311) scale(0.69,0.69)"><g transform="" style="fill: rgb(17, 226, 41);">
<polygon points="0,50 50,100 100,50 50,0"/>
</g></g><g transform="translate(966,1311) scale(0.69,0.69)"><g transform="" style="fill: rgb(17, 226, 41);">
<polygon points="0,50 50,100 100,50 50,0"/>
</g></g><g transform="translate(1104,1311) scale(0.69,0.69)"><g transform="" style="fill: rgb(17, 226, 41);">
<polygon points="0,50 50,100 100,50 50,0"/>
</g></g><g transform="translate(1173,1311) scale(0.69,0.69)"><g transform="" style="fill: rgb(17, 226, 41);">
<polygon points="0,50 50,100 100,50 50,0"/>
</g></g><g transform="translate(1242,1311) scale(0.69,0.69)"><g transform="" style="fill: rgb(17, 226, 41);">
<polygon points="0,50 50,100 100,50 50,0"/>
</g></g><g transform="translate(1311,1311) scale(0.69,0.69)"><g transform="" style="fill: rgb(17, 226, 41);">
<polygon points="0,50 50,100 100,50 50,0"/>
</g></g><g transform="translate(1380,1311) scale(0.69,0.69)"><g transform="" style="fill: rgb(17, 226, 41);">
<polygon points="0,50 50,100 100,50 50,0"/>
</g></g><g transform="translate(1587,1311) scale(0.69,0.69)"><g transform="" style="fill: rgb(17, 226, 41);">
<polygon points="0,50 50,100 100,50 50,0"/>
</g></g><g transform="translate(0,1380) scale(0.69,0.69)"><g transform="" style="fill: rgb(17, 226, 41);">
<polygon points="0,50 50,100 100,50 50,0"/>
</g></g><g transform="translate(276,1380) scale(0.69,0.69)"><g transform="" style="fill: rgb(17, 226, 41);">
<polygon points="0,50 50,100 100,50 50,0"/>
</g></g><g transform="translate(414,1380) scale(0.69,0.69)"><g transform="" style="fill: rgb(17, 226, 41);">
<polygon points="0,50 50,100 100,50 50,0"/>
</g></g><g transform="translate(759,1380) scale(0.69,0.69)"><g transform="" style="fill: rgb(17, 226, 41);">
<polygon points="0,50 50,100 100,50 50,0"/>
</g></g><g transform="translate(828,1380) scale(0.69,0.69)"><g transform="" style="fill: rgb(17, 226, 41);">
<polygon points="0,50 50,100 100,50 50,0"/>
</g></g><g transform="translate(1311,1380) scale(0.69,0.69)"><g transform="" style="fill: rgb(17, 226, 41);">
<polygon points="0,50 50,100 100,50 50,0"/>
</g></g><g transform="translate(1380,1380) scale(0.69,0.69)"><g transform="" style="fill: rgb(17, 226, 41);">
<polygon points="0,50 50,100 100,50 50,0"/>
</g></g><g transform="translate(1449,1380) scale(0.69,0.69)"><g transform="" style="fill: rgb(17, 226, 41);">
<polygon points="0,50 50,100 100,50 50,0"/>
</g></g><g transform="translate(1518,1380) scale(0.69,0.69)"><g transform="" style="fill: rgb(17, 226, 41);">
<polygon points="0,50 50,100 100,50 50,0"/>
</g></g><g transform="translate(1587,1380) scale(0.69,0.69)"><g transform="" style="fill: rgb(17, 226, 41);">
<polygon points="0,50 50,100 100,50 50,0"/>
</g></g><g transform="translate(1656,1380) scale(0.69,0.69)"><g transform="" style="fill: rgb(17, 226, 41);">
<polygon points="0,50 50,100 100,50 50,0"/>
</g></g><g transform="translate(1725,1380) scale(0.69,0.69)"><g transform="" style="fill: rgb(17, 226, 41);">
<polygon points="0,50 50,100 100,50 50,0"/>
</g></g><g transform="translate(1794,1380) scale(0.69,0.69)"><g transform="" style="fill: rgb(17, 226, 41);">
<polygon points="0,50 50,100 100,50 50,0"/>
</g></g><g transform="translate(1863,1380) scale(0.69,0.69)"><g transform="" style="fill: rgb(17, 226, 41);">
<polygon points="0,50 50,100 100,50 50,0"/>
</g></g><g transform="translate(552,1449) scale(0.69,0.69)"><g transform="" style="fill: rgb(17, 226, 41);">
<polygon points="0,50 50,100 100,50 50,0"/>
</g></g><g transform="translate(621,1449) scale(0.69,0.69)"><g transform="" style="fill: rgb(17, 226, 41);">
<polygon points="0,50 50,100 100,50 50,0"/>
</g></g><g transform="translate(690,1449) scale(0.69,0.69)"><g transform="" style="fill: rgb(17, 226, 41);">
<polygon points="0,50 50,100 100,50 50,0"/>
</g></g><g transform="translate(759,1449) scale(0.69,0.69)"><g transform="" style="fill: rgb(17, 226, 41);">
<polygon points="0,50 50,100 100,50 50,0"/>
</g></g><g transform="translate(828,1449) scale(0.69,0.69)"><g transform="" style="fill: rgb(17, 226, 41);">
<polygon points="0,50 50,100 100,50 50,0"/>
</g></g><g transform="translate(966,1449) scale(0.69,0.69)"><g transform="" style="fill: rgb(17, 226, 41);">
<polygon points="0,50 50,100 100,50 50,0"/>
</g></g><g transform="translate(1173,1449) scale(0.69,0.69)"><g transform="" style="fill: rgb(17, 226, 41);">
<polygon points="0,50 50,100 100,50 50,0"/>
</g></g><g transform="translate(1242,1449) scale(0.69,0.69)"><g transform="" style="fill: rgb(17, 226, 41);">
<polygon points="0,50 50,100 100,50 50,0"/>
</g></g><g transform="translate(1311,1449) scale(0.69,0.69)"><g transform="" style="fill: rgb(17, 226, 41);">
<polygon points="0,50 50,100 100,50 50,0"/>
</g></g><g transform="translate(1380,1449) scale(0.69,0.69)"><g transform="" style="fill: rgb(17, 226, 41);">
<polygon points="0,50 50,100 100,50 50,0"/>
</g></g><g transform="translate(1656,1449) scale(0.69,0.69)"><g transform="" style="fill: rgb(17, 226, 41);">
<polygon points="0,50 50,100 100,50 50,0"/>
</g></g><g transform="translate(1725,1449) scale(0.69,0.69)"><g transform="" style="fill: rgb(17, 226, 41);">
<polygon points="0,50 50,100 100,50 50,0"/>
</g></g><g transform="translate(1863,1449) scale(0.69,0.69)"><g transform="" style="fill: rgb(17, 226, 41);">
<polygon points="0,50 50,100 100,50 50,0"/>
</g></g><g transform="translate(690,1518) scale(0.69,0.69)"><g transform="" style="fill: rgb(17, 226, 41);">
<polygon points="0,50 50,100 100,50 50,0"/>
</g></g><g transform="translate(828,1518) scale(0.69,0.69)"><g transform="" style="fill: rgb(17, 226, 41);">
<polygon points="0,50 50,100 100,50 50,0"/>
</g></g><g transform="translate(1035,1518) scale(0.69,0.69)"><g transform="" style="fill: rgb(17, 226, 41);">
<polygon points="0,50 50,100 100,50 50,0"/>
</g></g><g transform="translate(1104,1518) scale(0.69,0.69)"><g transform="" style="fill: rgb(17, 226, 41);">
<polygon points="0,50 50,100 100,50 50,0"/>
</g></g><g transform="translate(1173,1518) scale(0.69,0.69)"><g transform="" style="fill: rgb(17, 226, 41);">
<polygon points="0,50 50,100 100,50 50,0"/>
</g></g><g transform="translate(1242,1518) scale(0.69,0.69)"><g transform="" style="fill: rgb(17, 226, 41);">
<polygon points="0,50 50,100 100,50 50,0"/>
</g></g><g transform="translate(1311,1518) scale(0.69,0.69)"><g transform="" style="fill: rgb(17, 226, 41);">
<polygon points="0,50 50,100 100,50 50,0"/>
</g></g><g transform="translate(1380,1518) scale(0.69,0.69)"><g transform="" style="fill: rgb(17, 226, 41);">
<polygon points="0,50 50,100 100,50 50,0"/>
</g></g><g transform="translate(1518,1518) scale(0.69,0.69)"><g transform="" style="fill: rgb(17, 226, 41);">
<polygon points="0,50 50,100 100,50 50,0"/>
</g></g><g transform="translate(1656,1518) scale(0.69,0.69)"><g transform="" style="fill: rgb(17, 226, 41);">
<polygon points="0,50 50,100 100,50 50,0"/>
</g></g><g transform="translate(1863,1518) scale(0.69,0.69)"><g transform="" style="fill: rgb(17, 226, 41);">
<polygon points="0,50 50,100 100,50 50,0"/>
</g></g><g transform="translate(552,1587) scale(0.69,0.69)"><g transform="" style="fill: rgb(17, 226, 41);">
<polygon points="0,50 50,100 100,50 50,0"/>
</g></g><g transform="translate(690,1587) scale(0.69,0.69)"><g transform="" style="fill: rgb(17, 226, 41);">
<polygon points="0,50 50,100 100,50 50,0"/>
</g></g><g transform="translate(759,1587) scale(0.69,0.69)"><g transform="" style="fill: rgb(17, 226, 41);">
<polygon points="0,50 50,100 100,50 50,0"/>
</g></g><g transform="translate(897,1587) scale(0.69,0.69)"><g transform="" style="fill: rgb(17, 226, 41);">
<polygon points="0,50 50,100 100,50 50,0"/>
</g></g><g transform="translate(966,1587) scale(0.69,0.69)"><g transform="" style="fill: rgb(17, 226, 41);">
<polygon points="0,50 50,100 100,50 50,0"/>
</g></g><g transform="translate(1035,1587) scale(0.69,0.69)"><g transform="" style="fill: rgb(17, 226, 41);">
<polygon points="0,50 50,100 100,50 50,0"/>
</g></g><g transform="translate(1173,1587) scale(0.69,0.69)"><g transform="" style="fill: rgb(17, 226, 41);">
<polygon points="0,50 50,100 100,50 50,0"/>
</g></g><g transform="translate(1380,1587) scale(0.69,0.69)"><g transform="" style="fill: rgb(17, 226, 41);">
<polygon points="0,50 50,100 100,50 50,0"/>
</g></g><g transform="translate(1656,1587) scale(0.69,0.69)"><g transform="" style="fill: rgb(17, 226, 41);">
<polygon points="0,50 50,100 100,50 50,0"/>
</g></g><g transform="translate(1863,1587) scale(0.69,0.69)"><g transform="" style="fill: rgb(17, 226, 41);">
<polygon points="0,50 50,100 100,50 50,0"/>
</g></g><g transform="translate(621,1656) scale(0.69,0.69)"><g transform="" style="fill: rgb(17, 226, 41);">
<polygon points="0,50 50,100 100,50 50,0"/>
</g></g><g transform="translate(690,1656) scale(0.69,0.69)"><g transform="" style="fill: rgb(17, 226, 41);">
<polygon points="0,50 50,100 100,50 50,0"/>
</g></g><g transform="translate(828,1656) scale(0.69,0.69)"><g transform="" style="fill: rgb(17, 226, 41);">
<polygon points="0,50 50,100 100,50 50,0"/>
</g></g><g transform="translate(897,1656) scale(0.69,0.69)"><g transform="" style="fill: rgb(17, 226, 41);">
<polygon points="0,50 50,100 100,50 50,0"/>
</g></g><g transform="translate(1173,1656) scale(0.69,0.69)"><g transform="" style="fill: rgb(17, 226, 41);">
<polygon points="0,50 50,100 100,50 50,0"/>
</g></g><g transform="translate(1311,1656) scale(0.69,0.69)"><g transform="" style="fill: rgb(17, 226, 41);">
<polygon points="0,50 50,100 100,50 50,0"/>
</g></g><g transform="translate(1380,1656) scale(0.69,0.69)"><g transform="" style="fill: rgb(17, 226, 41);">
<polygon points="0,50 50,100 100,50 50,0"/>
</g></g><g transform="translate(1449,1656) scale(0.69,0.69)"><g transform="" style="fill: rgb(17, 226, 41);">
<polygon points="0,50 50,100 100,50 50,0"/>
</g></g><g transform="translate(1518,1656) scale(0.69,0.69)"><g transform="" style="fill: rgb(17, 226, 41);">
<polygon points="0,50 50,100 100,50 50,0"/>
</g></g><g transform="translate(1587,1656) scale(0.69,0.69)"><g transform="" style="fill: rgb(17, 226, 41);">
<polygon points="0,50 50,100 100,50 50,0"/>
</g></g><g transform="translate(1656,1656) scale(0.69,0.69)"><g transform="" style="fill: rgb(17, 226, 41);">
<polygon points="0,50 50,100 100,50 50,0"/>
</g></g><g transform="translate(1863,1656) scale(0.69,0.69)"><g transform="" style="fill: rgb(17, 226, 41);">
<polygon points="0,50 50,100 100,50 50,0"/>
</g></g><g transform="translate(690,1725) scale(0.69,0.69)"><g transform="" style="fill: rgb(17, 226, 41);">
<polygon points="0,50 50,100 100,50 50,0"/>
</g></g><g transform="translate(759,1725) scale(0.69,0.69)"><g transform="" style="fill: rgb(17, 226, 41);">
<polygon points="0,50 50,100 100,50 50,0"/>
</g></g><g transform="translate(966,1725) scale(0.69,0.69)"><g transform="" style="fill: rgb(17, 226, 41);">
<polygon points="0,50 50,100 100,50 50,0"/>
</g></g><g transform="translate(1035,1725) scale(0.69,0.69)"><g transform="" style="fill: rgb(17, 226, 41);">
<polygon points="0,50 50,100 100,50 50,0"/>
</g></g><g transform="translate(1104,1725) scale(0.69,0.69)"><g transform="" style="fill: rgb(17, 226, 41);">
<polygon points="0,50 50,100 100,50 50,0"/>
</g></g><g transform="translate(1173,1725) scale(0.69,0.69)"><g transform="" style="fill: rgb(17, 226, 41);">
<polygon points="0,50 50,100 100,50 50,0"/>
</g></g><g transform="translate(1242,1725) scale(0.69,0.69)"><g transform="" style="fill: rgb(17, 226, 41);">
<polygon points="0,50 50,100 100,50 50,0"/>
</g></g><g transform="translate(1380,1725) scale(0.69,0.69)"><g transform="" style="fill: rgb(17, 226, 41);">
<polygon points="0,50 50,100 100,50 50,0"/>
</g></g><g transform="translate(1863,1725) scale(0.69,0.69)"><g transform="" style="fill: rgb(17, 226, 41);">
<polygon points="0,50 50,100 100,50 50,0"/>
</g></g><g transform="translate(621,1794) scale(0.69,0.69)"><g transform="" style="fill: rgb(17, 226, 41);">
<polygon points="0,50 50,100 100,50 50,0"/>
</g></g><g transform="translate(690,1794) scale(0.69,0.69)"><g transform="" style="fill: rgb(17, 226, 41);">
<polygon points="0,50 50,100 100,50 50,0"/>
</g></g><g transform="translate(828,1794) scale(0.69,0.69)"><g transform="" style="fill: rgb(17, 226, 41);">
<polygon points="0,50 50,100 100,50 50,0"/>
</g></g><g transform="translate(897,1794) scale(0.69,0.69)"><g transform="" style="fill: rgb(17, 226, 41);">
<polygon points="0,50 50,100 100,50 50,0"/>
</g></g><g transform="translate(1242,1794) scale(0.69,0.69)"><g transform="" style="fill: rgb(17, 226, 41);">
<polygon points="0,50 50,100 100,50 50,0"/>
</g></g><g transform="translate(1311,1794) scale(0.69,0.69)"><g transform="" style="fill: rgb(17, 226, 41);">
<polygon points="0,50 50,100 100,50 50,0"/>
</g></g><g transform="translate(1518,1794) scale(0.69,0.69)"><g transform="" style="fill: rgb(17, 226, 41);">
<polygon points="0,50 50,100 100,50 50,0"/>
</g></g><g transform="translate(1656,1794) scale(0.69,0.69)"><g transform="" style="fill: rgb(17, 226, 41);">
<polygon points="0,50 50,100 100,50 50,0"/>
</g></g><g transform="translate(1794,1794) scale(0.69,0.69)"><g transform="" style="fill: rgb(17, 226, 41);">
<polygon points="0,50 50,100 100,50 50,0"/>
</g></g><g transform="translate(1863,1794) scale(0.69,0.69)"><g transform="" style="fill: rgb(17, 226, 41);">
<polygon points="0,50 50,100 100,50 50,0"/>
</g></g><g transform="translate(828,1863) scale(0.69,0.69)"><g transform="" style="fill: rgb(17, 226, 41);">
<polygon points="0,50 50,100 100,50 50,0"/>
</g></g><g transform="translate(1035,1863) scale(0.69,0.69)"><g transform="" style="fill: rgb(17, 226, 41);">
<polygon points="0,50 50,100 100,50 50,0"/>
</g></g><g transform="translate(1311,1863) scale(0.69,0.69)"><g transform="" style="fill: rgb(17, 226, 41);">
<polygon points="0,50 50,100 100,50 50,0"/>
</g></g><g transform="translate(1380,1863) scale(0.69,0.69)"><g transform="" style="fill: rgb(17, 226, 41);">
<polygon points="0,50 50,100 100,50 50,0"/>
</g></g><g transform="translate(1518,1863) scale(0.69,0.69)"><g transform="" style="fill: rgb(17, 226, 41);">
<polygon points="0,50 50,100 100,50 50,0"/>
</g></g><g transform="translate(1794,1863) scale(0.69,0.69)"><g transform="" style="fill: rgb(17, 226, 41);">
<polygon points="0,50 50,100 100,50 50,0"/>
</g></g><g transform="translate(1932,1863) scale(0.69,0.69)"><g transform="" style="fill: rgb(17, 226, 41);">
<polygon points="0,50 50,100 100,50 50,0"/>
</g></g><g transform="translate(621,1932) scale(0.69,0.69)"><g transform="" style="fill: rgb(17, 226, 41);">
<polygon points="0,50 50,100 100,50 50,0"/>
</g></g><g transform="translate(828,1932) scale(0.69,0.69)"><g transform="" style="fill: rgb(17, 226, 41);">
<polygon points="0,50 50,100 100,50 50,0"/>
</g></g><g transform="translate(966,1932) scale(0.69,0.69)"><g transform="" style="fill: rgb(17, 226, 41);">
<polygon points="0,50 50,100 100,50 50,0"/>
</g></g><g transform="translate(1035,1932) scale(0.69,0.69)"><g transform="" style="fill: rgb(17, 226, 41);">
<polygon points="0,50 50,100 100,50 50,0"/>
</g></g><g transform="translate(1104,1932) scale(0.69,0.69)"><g transform="" style="fill: rgb(17, 226, 41);">
<polygon points="0,50 50,100 100,50 50,0"/>
</g></g><g transform="translate(1173,1932) scale(0.69,0.69)"><g transform="" style="fill: rgb(17, 226, 41);">
<polygon points="0,50 50,100 100,50 50,0"/>
</g></g><g transform="translate(0,0) scale(4.83, 4.83)"><g transform="" style="fill: rgb(17, 226, 41);">
<g>
	<rect x="15" y="15" style="fill:none;" width="70" height="70"/>
	<path d="M85,0H15H0v15v70v15h15h70h15V85V15V0H85z M85,85H15V15h70V85z"/>
</g>
</g></g><g transform="translate(1518,0) scale(4.83, 4.83)"><g transform="" style="fill: rgb(17, 226, 41);">
<g>
	<rect x="15" y="15" style="fill:none;" width="70" height="70"/>
	<path d="M85,0H15H0v15v70v15h15h70h15V85V15V0H85z M85,85H15V15h70V85z"/>
</g>
</g></g><g transform="translate(0,1518) scale(4.83, 4.83)"><g transform="" style="fill: rgb(17, 226, 41);">
<g>
	<rect x="15" y="15" style="fill:none;" width="70" height="70"/>
	<path d="M85,0H15H0v15v70v15h15h70h15V85V15V0H85z M85,85H15V15h70V85z"/>
</g>
</g></g><g transform="translate(138,138) scale(2.07, 2.07)"><g transform="" style="fill: rgb(17, 226, 41);">
<rect width="100" height="100"/>
</g></g><g transform="translate(1656,138) scale(2.07, 2.07)"><g transform="" style="fill: rgb(17, 226, 41);">
<rect width="100" height="100"/>
</g></g><g transform="translate(138,1656) scale(2.07, 2.07)"><g transform="" style="fill: rgb(17, 226, 41);">
<rect width="100" height="100"/>
</g></g><g transform="translate(690,690) scale(0.621,0.621)" width="621" height="621"><svg
   xmlns:dc="http://purl.org/dc/elements/1.1/"
   xmlns:cc="http://creativecommons.org/ns#"
   xmlns:rdf="http://www.w3.org/1999/02/22-rdf-syntax-ns#"
   xmlns:svg="http://www.w3.org/2000/svg"
   xmlns="http://www.w3.org/2000/svg"
   version="1.1"
   width="1000"
   height="1000"
   viewBox="0 0 1000 1000"
   id="svg6742">
  <defs
     id="defs6744" />
  <metadata
     id="metadata6747">
    <rdf:RDF>
      <cc:Work
         rdf:about="">
        <dc:format>image/svg+xml</dc:format>
        <dc:type
           rdf:resource="http://purl.org/dc/dcmitype/StillImage" />
        <dc:title></dc:title>
      </cc:Work>
    </rdf:RDF>
  </metadata>
  <g
     transform="translate(0,-52.362183)"
     id="layer1">
    <g
       transform="matrix(7.2949439,0,0,7.2949439,2134.0674,1337.574)"
       id="g7102">
      <path
         d="m -292.54062,-107.63844 c 0,-37.85375 30.6875,-68.54 68.54125,-68.54 37.85375,0 68.54,30.68625 68.54,68.54 0,37.854997 -30.68625,68.541247 -68.54,68.541247 -37.85375,0 -68.54125,-30.68625 -68.54125,-68.541247"
         id="path3834"
         style="fill:#30bf39;fill-opacity:1;fill-rule:nonzero;stroke:none" />
      <path
         d="m -220.81062,-147.26844 c -20.64875,0 -37.39,16.74 -37.39,37.3925 0,7.065 1.96125,13.671247 5.36625,19.308747 l -6.75,20.06 20.70125,-6.62625 c 5.35875,2.96125 11.51875,4.65 18.0725,4.65 20.655,0 37.39625,-16.7425 37.39625,-37.392497 0,-20.6525 -16.74125,-37.3925 -37.39625,-37.3925 z m 0,68.521247 c -6.31875,0 -12.20875,-1.89625 -17.1225,-5.14875 l -11.96375,3.83 3.88875,-11.56 c -3.72625,-5.13125 -5.92625,-11.436247 -5.92625,-18.249997 0,-17.1675 13.9625,-31.13 31.12375,-31.13 17.16625,0 31.13,13.9625 31.13,31.13 0,17.162497 -13.96375,31.128747 -31.13,31.128747 z m 17.53375,-22.632497 c -0.93625,-0.51375 -5.54125,-2.99875 -6.40375,-3.34875 -0.8625,-0.3525 -1.495,-0.53375 -2.16875,0.3975 -0.66875,0.92875 -2.5825,3.01125 -3.15875,3.62625 -0.5825,0.61875 -1.14125,0.67625 -2.08,0.16125 -0.93375,-0.5125 -3.97375,-1.63625 -7.4975,-5.025 -2.7425,-2.635 -4.54,-5.83125 -5.06125,-6.8075 -0.52375,-0.97625 -0.004,-1.47375 0.49125,-1.93125 0.44625,-0.41375 0.9975,-1.08125 1.49625,-1.62 0.495,-0.5375 0.67,-0.93125 1.0125,-1.555 0.34125,-0.62375 0.20375,-1.1875 -0.0187,-1.67375 -0.22,-0.48625 -1.9525,-5.255 -2.675,-7.19625 -0.725,-1.93875 -1.53125,-1.65125 -2.0875,-1.67375 -0.5575,-0.0187 -1.19,-0.1225 -1.82625,-0.1475 -0.63875,-0.0225 -1.68125,0.1775 -2.58875,1.09875 -0.9125,0.92125 -3.46625,3.13875 -3.64,7.83625 -0.1775,4.695 3.0725,9.3625 3.52625,10.015 0.45375,0.65625 6.205,10.836247 15.76125,15.021247 9.5625,4.1875 9.61375,2.91125 11.36625,2.8175 1.75625,-0.0937 5.73375,-2.1 6.61375,-4.2975 0.88,-2.1975 0.95,-4.10875 0.7275,-4.514997 -0.225,-0.4075 -0.8525,-0.67 -1.78875,-1.1825"
         id="path3836"
         style="fill:#f1f2f2;fill-opacity:1;fill-rule:evenodd;stroke:none" />
    </g>
  </g>
</svg>
</g></g></svg>